<svg xmlns="http://www.w3.org/2000/svg">
  <defs>
    <symbol id="email" viewBox="0 0 512 512">
      <path d="M64 112c-8.8 0-16 7.2-16 16v22.1L220.5 291.7c20.7 17 50.4 17 71.1 0L464 150.1V128c0-8.8-7.2-16-16-16H64zM48 212.2V384c0 8.8 7.2 16 16 16H448c8.8 0 16-7.2 16-16V212.2L322 328.8c-38.4 31.5-93.7 31.5-132 0L48 212.2zM0 128C0 92.7 28.7 64 64 64H448c35.3 0 64 28.7 64 64V384c0 35.3-28.7 64-64 64H64c-35.3 0-64-28.7-64-64V128z"/>
    </symbol>
    <symbol id="github" viewBox="0 0 496 512">
      <path d="M165.9 397.4c0 2-2.3 3.6-5.2 3.6-3.3 .3-5.6-1.3-5.6-3.6 0-2 2.3-3.6 5.2-3.6 3-.3 5.6 1.3 5.6 3.6zm-31.1-4.5c-.7 2 1.3 4.3 4.3 4.9 2.6 1 5.6 0 6.2-2s-1.3-4.3-4.3-5.2c-2.6-.7-5.5 .3-6.2 2.3zm44.2-1.7c-2.9 .7-4.9 2.6-4.6 4.9 .3 2 2.9 3.3 5.9 2.6 2.9-.7 4.9-2.6 4.6-4.6-.3-1.9-3-3.2-5.9-2.9zM244.8 8C106.1 8 0 113.3 0 252c0 110.9 69.8 205.8 169.5 239.2 12.8 2.3 17.3-5.6 17.3-12.1 0-6.2-.3-40.4-.3-61.4 0 0-70 15-84.7-29.8 0 0-11.4-29.1-27.8-36.6 0 0-22.9-15.7 1.6-15.4 0 0 24.9 2 38.6 25.8 21.9 38.6 58.6 27.5 72.9 20.9 2.3-16 8.8-27.1 16-33.7-55.9-6.2-112.3-14.3-112.3-110.5 0-27.5 7.6-41.3 23.6-58.9-2.6-6.5-11.1-33.3 2.6-67.9 20.9-6.5 69 27 69 27 20-5.6 41.5-8.5 62.8-8.5s42.8 2.9 62.8 8.5c0 0 48.1-33.6 69-27 13.7 34.7 5.2 61.4 2.6 67.9 16 17.7 25.8 31.5 25.8 58.9 0 96.5-58.9 104.2-114.8 110.5 9.2 7.9 17 22.9 17 46.4 0 33.7-.3 75.4-.3 83.6 0 6.5 4.6 14.4 17.3 12.1C428.2 457.8 496 362.9 496 252 496 113.3 383.5 8 244.8 8zM97.2 352.9c-1.3 1-1 3.3 .7 5.2 1.6 1.6 3.9 2.3 5.2 1 1.3-1 1-3.3-.7-5.2-1.6-1.6-3.9-2.3-5.2-1zm-10.8-8.1c-.7 1.3 .3 2.9 2.3 3.9 1.6 1 3.6 .7 4.3-.7 .7-1.3-.3-2.9-2.3-3.9-2-.6-3.6-.3-4.3 .7zm32.4 35.6c-1.6 1.3-1 4.3 1.3 6.2 2.3 2.3 5.2 2.6 6.5 1 1.3-1.3 .7-4.3-1.3-6.2-2.2-2.3-5.2-2.6-6.5-1zm-11.4-14.7c-1.6 1-1.6 3.6 0 5.9 1.6 2.3 4.3 3.3 5.6 2.3 1.6-1.3 1.6-3.9 0-6.2-1.4-2.3-4-3.3-5.6-2z"/>
    </symbol>
    <symbol id="linkedin" viewBox="0 0 448 512">
      <path d="M416 32H31.9C14.3 32 0 46.5 0 64.3v383.4C0 465.5 14.3 480 31.9 480H416c17.6 0 32-14.5 32-32.3V64.3c0-17.8-14.4-32.3-32-32.3zM135.4 416H69V202.2h66.5V416zm-33.2-243c-21.3 0-38.5-17.3-38.5-38.5S80.9 96 102.2 96c21.2 0 38.5 17.3 38.5 38.5 0 21.3-17.2 38.5-38.5 38.5zm282.1 243h-66.4V312c0-24.8-.5-56.7-34.5-56.7-34.6 0-39.9 27-39.9 54.9V416h-66.4V202.2h63.7v29.2h.9c8.9-16.8 30.6-34.5 62.9-34.5 67.2 0 79.7 44.3 79.7 101.9V416z"/>
    </symbol>
    <symbol id="twitter-x" viewBox="0 0 512 512">
      <path d="M389.2 48h70.6L305.6 224.2 487 464H345L233.7 318.6 106.5 464H35.8L200.7 275.5 26.8 48H172.4L272.9 180.9 389.2 48zM364.4 421.8h39.1L151.1 88h-42L364.4 421.8z"/>
    </symbol>
    <symbol id="discord" viewBox="0 0 48 48" fill="none" stroke-width="2.5" stroke-linecap="round" stroke-linejoin="round">
      <path class="a" d="M17.59,34.1733c-.89,1.3069-1.8944,2.6152-2.91,3.8267C7.3,37.79,4.5,33,4.5,33A44.83,44.83,0,0,1,9.31,13.48,16.47,16.47,0,0,1,18.69,10l1,2.31A32.6875,32.6875,0,0,1,24,12a32.9643,32.9643,0,0,1,4.33.3l1-2.31a16.47,16.47,0,0,1,9.38,3.51A44.8292,44.8292,0,0,1,43.5,33s-2.8,4.79-10.18,5a47.4193,47.4193,0,0,1-2.86-3.81m6.46-2.9c-3.84,1.9454-7.5555,3.89-12.92,3.89s-9.08-1.9446-12.92-3.89"/>
      <circle class="a" cx="17.847" cy="26.23" r="3.35"/>
      <circle class="a" cx="30.153" cy="26.23" r="3.35"/>
    </symbol>
    <symbol id="wechat" viewBox="0 0 48 48" fill="none" stroke-width="2.5" stroke-linecap="round" stroke-linejoin="round">
      <path class="cls-1" d="M20,32.17a21.33,21.33,0,0,1-5.81-.71,2.63,2.63,0,0,0-1.45.24c-1.35.76-2.64,1.62-4.17,2.58.28-1.27.46-2.38.78-3.45a1.31,1.31,0,0,0-.6-1.74c-4.65-3.28-6.61-8.2-5.14-13.26,1.36-4.68,4.69-7.51,9.22-9a15.47,15.47,0,0,1,16.89,4.94,15.09,15.09,0,0,1,2.71,7.55m-18.13-3a1.79,1.79,0,0,0-1.72-1.78,1.73,1.73,0,0,0-1.81,1.68A1.71,1.71,0,0,0,12.47,18,1.76,1.76,0,0,0,14.3,16.32Zm9.3-1.78a1.79,1.79,0,0,0-1.75,1.76,1.75,1.75,0,0,0,1.8,1.7,1.73,1.73,0,1,0,0-3.46Z"/>
      <path class="cls-1" d="M40.83,42.05c-1.22-.54-2.35-1.36-3.55-1.49s-2.45.57-3.69.69a12.36,12.36,0,0,1-10-3.27C18.22,33,19,25.46,25.17,21.41c5.49-3.6,13.55-2.4,17.42,2.6a9.88,9.88,0,0,1-1.14,13.8c-1.19,1.06-1.62,1.94-.86,3.33a4,4,0,0,1,.24.91Zm-14-13.52a1.44,1.44,0,1,0,0-2.88,1.44,1.44,0,1,0,0,2.88Zm9-2.88A1.43,1.43,0,0,0,34.44,27a1.42,1.42,0,1,0,2.84.12A1.43,1.43,0,0,0,35.87,25.65Z"/>
    </symbol>
  </defs>
</svg>
